<svg id="Layer_1" height="512" viewBox="0 0 512 512" width="512" xmlns="http://www.w3.org/2000/svg" data-name="Layer 1"><g fill="rgb(0,0,0)"><path d="m388.76 108.07h-10.01v-11.02c0-12.96-10.55-23.51-23.51-23.51h-7.22c-12.96 0-23.51 10.55-23.51 23.51v11.02h-137.7v-11.02c0-12.96-10.55-23.51-23.51-23.51h-7.22c-12.96 0-23.51 10.55-23.51 23.51v11.02h-9.32c-27.46 0-49.8 22.34-49.8 49.8v230.79c0 27.46 22.34 49.8 49.8 49.8h265.51c27.46 0 49.8-22.34 49.8-49.8v-230.79c0-27.46-22.34-49.8-49.8-49.8zm-52.26-11.02c0-6.35 5.16-11.51 11.51-11.51h7.22c6.35 0 11.51 5.16 11.51 11.51v37.53c0 6.35-5.16 11.51-11.51 11.51h-7.22c-6.35 0-11.51-5.16-11.51-11.51zm-191.94 0c0-6.35 5.17-11.51 11.51-11.51h7.22c6.35 0 11.51 5.16 11.51 11.51v37.53c0 6.35-5.16 11.51-11.51 11.51h-7.22c-6.35 0-11.51-5.16-11.51-11.51zm-21.32 23.02h9.32v14.5c0 12.96 10.55 23.51 23.51 23.51h7.22c12.96 0 23.51-10.55 23.51-23.51v-14.5h137.7v14.5c0 12.96 10.55 23.51 23.51 23.51h7.22c12.96 0 23.51-10.55 23.51-23.51v-14.5h10.01c20.85 0 37.8 16.96 37.8 37.8v49.08h-341.11v-49.08c0-20.85 16.96-37.8 37.8-37.8zm265.52 306.4h-265.52c-20.85 0-37.8-16.96-37.8-37.8v-169.72h341.12v169.71c0 20.85-16.96 37.8-37.8 37.8z"/><path d="m194.58 248.94h-47.76c-3.31 0-6 2.69-6 6v47.76c0 3.31 2.69 6 6 6h47.76c3.31 0 6-2.69 6-6v-47.76c0-3.31-2.69-6-6-6zm-6 47.76h-35.76v-35.76h35.76z"/><path d="m279.88 248.94h-47.76c-3.31 0-6 2.69-6 6v47.76c0 3.31 2.69 6 6 6h47.76c3.31 0 6-2.69 6-6v-47.76c0-3.31-2.69-6-6-6zm-6 47.76h-35.76v-35.76h35.76z"/><path d="m316.96 308.7h47.76c3.31 0 6-2.69 6-6v-47.76c0-3.31-2.69-6-6-6h-47.76c-3.31 0-6 2.69-6 6v47.76c0 3.31 2.69 6 6 6zm6-47.76h35.76v35.76h-35.76z"/><path d="m194.58 327.22h-47.76c-3.31 0-6 2.69-6 6v47.76c0 3.31 2.69 6 6 6h47.76c3.31 0 6-2.69 6-6v-47.76c0-3.31-2.69-6-6-6zm-6 47.76h-35.76v-35.76h35.76z"/><path d="m279.88 327.22h-47.76c-3.31 0-6 2.69-6 6v47.76c0 3.31 2.69 6 6 6h47.76c3.31 0 6-2.69 6-6v-47.76c0-3.31-2.69-6-6-6zm-6 47.76h-35.76v-35.76h35.76z"/><path d="m368.56 335.14-32.6 31.78-14.87-14.16c-2.4-2.29-6.2-2.19-8.48.21s-2.19 6.2.21 8.48l19.05 18.15c1.16 1.1 2.65 1.66 4.14 1.66s3.02-.57 4.19-1.7l36.74-35.82c2.37-2.31 2.42-6.11.11-8.48s-6.11-2.42-8.48-.11z"/></g></svg>