<svg width="20" height="14" viewBox="0 0 20 14" fill="none" xmlns="http://www.w3.org/2000/svg">
<path d="M19.6551 13.1034H0.344842C0.154413 13.1034 0 12.949 0 12.7586V0.344842C0 0.154413 0.154413 0 0.344842 0H19.6551C19.8455 0 20 0.154413 20 0.344842V12.7586C19.9999 12.949 19.8455 13.1034 19.6551 13.1034Z" fill="#41479B"/>
<path d="M19.9999 0.344842C19.9999 0.154413 19.8455 0 19.6551 0H18.1123L11.7241 4.18541V0H8.27579V4.18541L1.88757 0H0.344842C0.154413 0 0 0.154413 0 0.344842V1.23667L5.4808 4.82756H0V8.27583H5.4808L0 11.8668V12.7586C0 12.949 0.154413 13.1034 0.344842 13.1034H1.88761L8.27587 8.91801V13.1034H11.7241V8.91801L18.1124 13.1034H19.6552C19.8456 13.1034 20 12.949 20 12.7586V11.8668L14.5192 8.27587H19.9999V4.8276H14.5191L19.9999 1.23667V0.344842Z" fill="#F5F5F5"/>
<path d="M19.9999 5.51724H11.0344V0H8.96547V5.51724H0V7.58618H8.96547V13.1034H11.0344V7.58618H19.9999V5.51724Z" fill="#FF4B55"/>
<path d="M6.99013 8.27539L0.00976562 12.8065C0.0341796 12.973 0.171484 13.103 0.344803 13.103H0.819762L8.25684 8.27543H6.99013V8.27539Z" fill="#FF4B55"/>
<path d="M13.5308 8.27539H12.264L19.6903 13.0958C19.8634 13.0774 20 12.9361 20 12.7581V12.4746L13.5308 8.27539Z" fill="#FF4B55"/>
<path d="M0 0.725075L6.31947 4.82717H7.58618L0.200898 0.0332031C0.0829294 0.0880076 0 0.20578 0 0.344413V0.725075Z" fill="#FF4B55"/>
<path d="M12.9908 4.82756L19.988 0.285507C19.9589 0.124492 19.8245 0 19.6551 0H19.1611L11.7241 4.82756H12.9908Z" fill="#FF4B55"/>
</svg>
